Coordinates
version=1
nRows=16
nColumns=36
inDegrees=yes

Units are S.I. units (second, meters, Newtons, ...)
If the header above contains a line with 'inDegrees', this indicates whether rotational values are in degrees (yes) or radians (no).

endheader
time	pelvis_tilt	pelvis_list	pelvis_rotation	pelvis_tx	pelvis_ty	pelvis_tz	hip_flexion_r	hip_adduction_r	hip_rotation_r	knee_angle_r	knee_angle_r_beta	ankle_angle_r	subtalar_angle_r	mtp_angle_r	hip_flexion_l	hip_adduction_l	hip_rotation_l	knee_angle_l	knee_angle_l_beta	ankle_angle_l	subtalar_angle_l	mtp_angle_l	lumbar_extension	lumbar_bending	lumbar_rotation	arm_flex_r	arm_add_r	arm_rot_r	elbow_flex_r	pro_sup_r	arm_flex_l	arm_add_l	arm_rot_l	elbow_flex_l	pro_sup_l
      7.25000000	      3.18559795	     -7.70677579	     14.74236387	      0.90794678	      0.94783722	     -0.18379873	     19.12064655	     -2.85754456	    -11.87445440	     84.24668205	      1.47038199	     -8.06020511	     -0.33753099	     -7.49999987	      3.49512420	     -2.15614384	     10.14193421	     11.67759190	      0.20381243	      9.26134702	    -11.74147111	     -7.49999987	    -18.97252491	     -1.69481839	      3.16271441	     44.33548996	      7.83982001	     65.77198166	    128.68065573	     89.79798568	     58.55189583	      8.73991397	     68.21176663	    124.42944979	     70.20454540
      7.26666670	      2.78145480	     -7.24876263	     14.42069590	      0.90822055	      0.94423022	     -0.18378950	     18.62448726	     -2.97434186	    -11.62170780	     84.43341409	      1.47364107	     -9.50538815	      0.07724286	     -7.49999987	      4.21643718	     -1.42342192	      9.85593050	     12.52941277	      0.21867951	      9.67334024	    -12.08388634	     -7.49999987	    -19.37160562	     -2.08592382	      3.41557090	     44.38033002	      7.80349391	     65.96799841	    128.79865902	     89.84060625	     58.41011768	      8.73078245	     68.27802854	    124.67078776	     70.23257906
      7.28333330	      1.96722337	     -6.94843439	     13.97355988	      0.90568563	      0.94012085	     -0.18540706	     18.98948598	     -3.14547441	    -11.35465082	     85.02475964	      1.48396200	    -11.72191934	     -0.10520929	     -7.49999987	      5.75741036	     -0.65532724	      9.50515246	     13.78595157	      0.24061025	     10.49154666	    -12.37569308	     -7.49999987	    -19.32452841	     -2.41906677	      3.65011602	     44.84064601	      7.64828800	     66.26702739	    129.29342536	     89.93969776	     58.77551543	      8.83008506	     68.41259012	    124.91575333	     70.29909572
      7.30000000	      1.10703021	     -6.61584080	     13.62360202	      0.90319613	      0.93698843	     -0.18147668	     19.49470910	     -3.14362222	    -11.09373969	     85.57955128	      1.49364494	    -13.57797572	      0.08538701	     -7.49999987	      7.56362107	      0.06464179	      9.04771037	     15.37558217	      0.26835453	     10.98906763	    -12.95930437	     -7.49999987	    -19.27244507	     -2.92993756	      3.71383419	     45.12709365	      7.67698157	     66.29562632	    129.45175247	     90.04197118	     59.23827978	      8.92007945	     68.71927916	    124.55138049	     70.34328067
      7.31666670	      0.31152379	     -6.17745856	     13.21580107	      0.90503877	      0.93285523	     -0.18093820	     19.51354416	     -3.37083901	    -10.89484600	     85.72920122	      1.49625683	    -15.21360002	      0.73324594	     -7.49999987	      9.13083456	      0.84561727	      8.60468654	     16.94475596	      0.29574178	     11.52011841	    -13.57122250	     -7.49999987	    -19.25352629	     -3.47521333	      3.95015875	     45.43530473	      7.80218134	     66.22742101	    129.17836203	     89.21290650	     59.47685762	      9.03099633	     68.75503298	    124.32535369	     69.93199804
      7.33333330	     -0.36317459	     -5.88653810	     12.77531601	      0.90207902	      0.92996348	     -0.17654878	     19.32760815	     -3.38135101	    -11.00207318	     85.36335152	      1.48987154	    -16.60196489	      0.71898359	     -7.49999987	     10.79732128	      1.42379065	      8.61072170	     18.71649271	      0.32666442	     11.44791614	    -15.48157000	     -7.49999987	    -19.65482234	     -4.10908620	      4.36540407	     45.98886294	      7.80963836	     66.39615194	    129.29900741	     89.54664907	     60.55891257	      9.09305587	     69.14401654	    123.87959844	     69.92986559
      7.35000000	     -0.96908217	     -5.38164746	     12.40192074	      0.90643067	      0.92593024	     -0.17912074	     18.73585866	     -3.66876853	    -10.84710238	     84.67181474	      1.47780195	    -17.52405576	      1.44879227	     -7.49999987	     11.83602489	      2.24652897	      8.57057114	     19.99042494	      0.34889873	     11.86278179	    -16.50617694	     -7.49999987	    -19.99063960	     -4.75075673	      4.62017080	     46.01566100	      7.87967000	     66.67852050	    129.05862984	     89.64033068	     60.96182455	      9.18116680	     69.44359490	    123.78863523	     69.89165408
      7.36666670	     -1.60878592	     -5.08332791	     11.86500567	      0.90671407	      0.92129516	     -0.17830855	     18.26564480	     -3.94682453	    -10.69845671	     83.88092491	      1.46399832	    -18.54814275	      1.85412348	     -7.49999987	     12.90144056	      2.89785692	      8.82633139	     21.17206391	      0.36952222	     12.39203499	    -17.96638468	     -7.49999987	    -20.15788421	     -5.30719646	      5.03668795	     45.80144506	      7.87468313	     67.23938892	    129.11803156	     88.74280664	     61.07021226	      9.34070972	     70.15996846	    123.42145225	     69.52475817
      7.38333330	     -2.32897787	     -4.91605127	     11.13300909	      0.90521210	      0.91652788	     -0.17518017	     18.34413123	     -4.04013043	    -10.41827476	     83.26300298	      1.45321355	    -19.22017309	      2.23858494	     -7.49999987	     14.21631053	      3.31752360	      8.81067024	     22.45362281	      0.39188965	     13.08973830	    -18.96688490	     -7.49999987	    -20.28978517	     -5.73991338	      5.47514214	     45.67214897	      7.87675769	     67.75120038	    129.09421153	     88.00196080	     61.21268344	      9.09872626	     70.67716501	    123.39544619	     69.14761854
      7.40000000	     -3.08465755	     -4.50150749	     10.49101249	      0.90933979	      0.90932420	     -0.17882941	     18.05983905	     -4.38024298	     -9.98147022	     82.70127317	      1.44340951	    -18.81193010	      2.09062901	     -7.49999987	     15.42087665	      4.03902341	      8.68650461	     23.71757061	      0.41394970	     13.73126205	    -19.92166204	     -7.49999987	    -20.19930211	     -6.27242451	      5.84048788	     45.04635140	      7.79399983	     67.64891318	    129.07943795	     91.25028742	     60.98741768	      8.90427915	     70.93121353	    123.52886704	     69.16053167
      7.41666670	     -3.72314595	     -4.03493672	      9.99166450	      0.90653061	      0.90936654	     -0.18000036	     17.14928051	     -4.44565117	     -9.49950156	     81.46619992	      1.42185342	    -18.41246015	      1.69089665	     -7.49999987	     16.77168686	      4.84881591	      8.44212755	     25.35836691	      0.44258700	     14.29792594	    -20.86562223	     -7.49999987	    -20.41162873	     -6.80924415	      6.04411118	     44.65338972	      7.48866858	     67.57817536	    129.16554142	     91.29356835	     60.73728969	      8.51026808	     71.27549141	    123.57196348	     69.19629627
      7.43333330	     -4.54291290	     -3.67262593	      9.69235843	      0.90348667	      0.90324349	     -0.17554949	     16.94075032	     -4.26498342	     -8.91448728	     80.51714900	      1.40528935	    -18.32351677	      1.23815387	     -7.49999987	     18.73376016	      5.53475271	      8.37086744	     27.46542262	      0.47936206	     14.71507513	    -22.16128049	     -7.49999987	    -20.59227136	     -7.32466008	      6.08243816	     44.70603016	      7.40326367	     67.48834598	    129.18513361	     91.78187474	     61.01836951	      8.15917905	     71.49698988	    123.32028331	     69.41486812
      7.45000000	     -5.41190844	     -3.51031919	      9.61875407	      0.89818906	      0.89745197	     -0.17392390	     17.45234381	     -4.10199837	     -8.52896783	     80.43071791	      1.40378085	    -18.21359483	      0.84512474	     -7.49999987	     21.39023577	      6.08569898	      8.37183213	     30.35323456	      0.52976388	     15.32524000	    -23.08126924	     -7.49999987	    -21.01220304	     -7.44566621	      6.12342670	     45.30195542	      7.14447576	     67.56007255	    129.06742579	     91.67919298	     61.71796524	      7.84172096	     71.37376390	    123.19000210	     69.45166371
      7.46666670	     -6.33905122	     -3.52289218	      9.47962233	      0.89063879	      0.89101110	     -0.17699722	     18.38735738	     -3.98705505	     -8.10639319	     80.70446974	      1.40855872	    -17.65076365	      0.73596170	     -7.49999987	     24.52305571	      6.57800168	      8.19845225	     33.54535055	      0.58547682	     15.85924655	    -24.29832940	     -7.49999987	    -21.43561009	     -7.20389193	      6.22473204	     46.40476684	      6.86657365	     67.59781703	    128.88419865	     91.72775853	     62.54788061	      8.06894348	     71.07459066	    122.96274473	     69.53696388
      7.48333330	     -7.48401643	     -3.56321513	      9.21656671	      0.88598095	      0.88608943	     -0.17588149	     19.59676739	     -3.86857570	     -7.89926024	     81.17438135	      1.41676022	    -16.93891648	      0.02873704	     -7.49999987	     27.94499880	      7.01261222	      7.88919899	     36.64535271	      0.63958206	     16.36629948	    -25.01367972	     -7.49999987	    -21.45142744	     -7.12503803	      6.25051991	     47.54638343	      6.57477905	     67.56987971	    128.62556007	     90.70187717	     63.31272690	      8.33146515	     70.98263478	    122.39317394	     69.24824478
      7.50000000	     -8.20106248	     -3.23505372	      9.03285378	      0.88996619	      0.88099163	     -0.17844915	     19.76395659	     -4.11699023	     -7.62985389	     81.27358034	      1.41849157	    -17.08623975	     -0.06988643	     -7.49999987	     29.89812548	      7.68197112	      7.58451523	     38.50808607	      0.67209289	     16.84558419	    -25.08936285	     -7.49999987	    -21.81988923	     -7.08644227	      6.18748887	     48.39715976	      6.38392382	     67.87119248	    128.11414280	     90.77746035	     63.87978840	      8.33643551	     70.89010467	    122.12835300	     69.40989022
